<svg width="70" height="16" viewBox="0 0 70 16" fill="none" xmlns="http://www.w3.org/2000/svg">
<path d="M59.2625 15.8742V0H61.6233V10.6317L60.7041 10.401L66.366 4.52949H69.3119L65.0498 9.07994L69.5 15.8742H66.7839L62.8142 9.85583L64.2141 9.6671L60.8712 13.232L61.6233 11.6592V15.8742H59.2625Z" fill="black"/>
<path d="M47.0205 15.8742V4.52947H49.2769V6.75227L49.0053 6.4587C49.2839 5.74572 49.7296 5.2075 50.3425 4.84402C50.9553 4.46656 51.6657 4.27783 52.4735 4.27783C53.3093 4.27783 54.0475 4.45957 54.6882 4.82305C55.3289 5.18653 55.8303 5.6898 56.1925 6.33288C56.5546 6.97595 56.7357 7.71689 56.7357 8.55568V15.8742H54.3957V9.18478C54.3957 8.6116 54.2912 8.12929 54.0823 7.73786C53.8734 7.33244 53.5739 7.02488 53.1839 6.81518C52.8078 6.59151 52.376 6.47967 51.8885 6.47967C51.401 6.47967 50.9623 6.59151 50.5723 6.81518C50.1962 7.02488 49.9037 7.33244 49.6948 7.73786C49.4859 8.14327 49.3814 8.62558 49.3814 9.18478V15.8742H47.0205Z" fill="black"/>
<path d="M41.8994 15.8742V4.52956H44.2603V15.8742H41.8994ZM41.8994 2.97779V0.251709H44.2603V2.97779H41.8994Z" fill="black"/>
<path d="M32.7974 15.8742V0H35.1583V15.8742H32.7974Z" fill="black"/>
<path d="M37.4417 15.8742V0H39.8025V15.8742H37.4417Z" fill="black"/>
<path d="M27.6763 15.8742V4.52956H30.0372V15.8742H27.6763ZM27.6763 2.97779V0.251709H30.0372V2.97779H27.6763Z" fill="black"/>
<path d="M12.54 15.8742L8.65393 4.52954H11.1611L14.1279 13.5675H13.2504L16.2798 4.52954H18.4318L21.4404 13.5675H20.5629L23.5505 4.52954H26.0577L22.1507 15.8742H20.0197L16.9693 6.62653H17.7423L14.692 15.8742H12.54Z" fill="black"/>
<path d="M6.22465 16C5.04072 16 4.12143 15.6645 3.46679 14.9934C2.81214 14.3224 2.48482 13.3787 2.48482 12.1625V6.66839H0.5V4.52946H0.813393C1.34268 4.52946 1.75357 4.37568 2.04607 4.06812C2.33857 3.76057 2.48482 3.34117 2.48482 2.80993V1.9292H4.84572V4.52946H7.41554V6.66839H4.84572V12.0576C4.84572 12.4491 4.9084 12.7846 5.03375 13.0642C5.15911 13.3298 5.36107 13.5395 5.63965 13.6933C5.91822 13.8331 6.28036 13.903 6.72607 13.903C6.8375 13.903 6.96286 13.896 7.10215 13.882C7.24143 13.868 7.37375 13.8541 7.49911 13.8401V15.8741C7.30411 15.9021 7.08822 15.9301 6.85143 15.958C6.61465 15.986 6.40572 16 6.22465 16Z" fill="black"/>
</svg>
